<svg width="80" height="107" viewBox="0 0 80 107" fill="none" xmlns="http://www.w3.org/2000/svg">
<path d="M29.9961 23.1665C11.3798 41.9691 20.9961 52.1666 5.1936 61.5503" stroke="black" stroke-linecap="round"/>
<path d="M35.996 21.6666C61.9029 15.376 30.996 71.1665 67.9959 60.1665" stroke="black" stroke-linecap="round"/>
<path d="M34.5872 9.16655C81.0872 2.16655 45.0873 52.1665 75.0872 42.1665" stroke="black" stroke-linecap="round"/>
<path d="M28.4968 11.167C4.99608 24.6665 15.3762 36.5131 6.49681 48.667" stroke="black" stroke-linecap="round"/>
<path d="M66.6329 50.8984C81.633 36.8984 80.133 71.8983 66.6329 66.3984" stroke="black" stroke-linecap="round"/>
<path d="M40.5 52.3183C44.5565 52.3183 47 50 52.3764 52.3183" stroke="black" stroke-linecap="round"/>
<path d="M26.0483 54.2138C21.3511 53.1718 20.5 52.5 17.0434 55.1143" stroke="black" stroke-linecap="round"/>
<line x1="44.4961" y1="58.1665" x2="47.4961" y2="58.1665" stroke="black"/>
<line x1="20.4961" y1="59.1665" x2="23.4961" y2="59.1665" stroke="black"/>
<path d="M34.0256 77.5007L39 78" stroke="black" stroke-linecap="round"/>
<path d="M31.5 88C35.2394 90.6406 37.3107 90.6978 40.9497 87.7051" stroke="black" stroke-linecap="round"/>
<path d="M29.078 100.506C29.078 100.506 36 109 44 104.5" stroke="black"/>
<path d="M52.5288 98.8328C59.3934 89.4407 62.3084 83.1883 63.5288 67.8328" stroke="black"/>
</svg>
