<svg width="80" height="107" viewBox="0 0 80 107" fill="none" xmlns="http://www.w3.org/2000/svg">
<path d="M29.9961 23.1665C11.3798 41.9691 20.9961 52.1666 5.1936 61.5503" stroke="black" stroke-linecap="round"/>
<path d="M35.996 21.6666C61.9029 15.376 30.996 71.1665 67.9959 60.1665" stroke="black" stroke-linecap="round"/>
<path d="M34.5872 9.16655C81.0872 2.16655 45.0873 52.1665 75.0872 42.1665" stroke="black" stroke-linecap="round"/>
<path d="M28.4968 11.167C4.99608 24.6665 15.3762 36.5131 6.49681 48.667" stroke="black" stroke-linecap="round"/>
<path d="M66.6329 50.8984C81.633 36.8984 80.133 71.8983 66.6329 66.3984" stroke="black" stroke-linecap="round"/>
<line x1="40.9435" y1="54.3639" x2="52.3764" y2="52.3183" stroke="black" stroke-linecap="round"/>
<line x1="27.0483" y1="55.2138" x2="18.0434" y2="56.1143" stroke="black" stroke-linecap="round"/>
<line x1="44.4961" y1="58.1665" x2="47.4961" y2="58.1665" stroke="black"/>
<line x1="20.4961" y1="59.1665" x2="23.4961" y2="59.1665" stroke="black"/>
<line x1="34.0256" y1="77.5007" x2="40.5295" y2="77.8341" stroke="black"/>
<line x1="32.9711" y1="91.1674" x2="44.475" y2="90.5009" stroke="black"/>
<line x1="27.6827" y1="89.6136" x2="34.1788" y2="84.2801" stroke="black"/>
<line x1="33.7197" y1="84.2193" x2="39.7197" y2="87.2193" stroke="black"/>
<line x1="39.1425" y1="87.313" x2="43.1425" y2="83.313" stroke="black"/>
<line x1="42.7734" y1="83.2505" x2="48.7734" y2="87.2505" stroke="black"/>
<path d="M29.078 100.506C29.078 100.506 36 109 44 104.5" stroke="black"/>
<path d="M52.5288 98.8328C59.3934 89.4407 62.3084 83.1883 63.5288 67.8328" stroke="black"/>
</svg>
